# xmcd
#
# Track frame offsets:
#	150
#	16700
#	44131
#	56753
#	75508
#	94065
#	112033
#	151000
#	175864
#	194508
#	234920
#	255754
#
# Disc length: 3683 seconds
#
# Revision: 1
# Processed by: cddbd v1.5.2PL0 Copyright (c) Steve Scherf et al.
# Submitted via: audiograbber 1.83.01
#
DISCID=8a0e610c
DTITLE=Mad'Dene - Mystery of the Didgeridoo
DYEAR=2009
DGENRE=National Folk
TTITLE0=Black Run
TTITLE1=Mountain Singers
TTITLE2=Afro Quickening
TTITLE3=Lovers Ritual
TTITLE4=Riding The Wind
TTITLE5=Kaanda
TTITLE6=Jungle
TTITLE7=Black Night
TTITLE8=Denghe
TTITLE9=Afro-Chacas
TTITLE10=Summer Ritual
TTITLE11=Journey
EXTD=
EXTT0=
EXTT1=
EXTT2=
EXTT3=
EXTT4=
EXTT5=
EXTT6=
EXTT7=
EXTT8=
EXTT9=
EXTT10=
EXTT11=
PLAYORDER=
